<svg width="17" height="17" viewBox="0 0 17 17" fill="none" xmlns="http://www.w3.org/2000/svg">
<path d="M4.91901 2.02033C4.73154 2.20785 4.62622 2.46216 4.62622 2.72733C4.62622 2.99249 4.73154 3.2468 4.91901 3.43433L9.86901 8.38433L4.91901 13.3343C4.73685 13.5229 4.63605 13.7755 4.63833 14.0377C4.64061 14.2999 4.74578 14.5507 4.93119 14.7361C5.1166 14.9216 5.36741 15.0267 5.62961 15.029C5.8918 15.0313 6.1444 14.9305 6.33301 14.7483L11.99 9.09133C12.1775 8.9038 12.2828 8.64949 12.2828 8.38433C12.2828 8.11916 12.1775 7.86485 11.99 7.67733L6.33301 2.02033C6.14548 1.83285 5.89117 1.72754 5.62601 1.72754C5.36084 1.72754 5.10653 1.83285 4.91901 2.02033Z" fill="#606266"/>
</svg>
