<svg width="13" height="17" viewBox="0 0 13 17" fill="none" xmlns="http://www.w3.org/2000/svg">
<path d="M7.9191 9.96954C8.06038 10.6993 7.86439 11.4528 7.38364 12.0281C7.27654 12.1467 7.14635 12.2489 7.0275 12.3593C7.65746 12.7951 8.81322 12.2772 9.24453 11.3628C9.51357 11.5083 9.71061 11.7544 9.79049 12.0445C10.2247 13.3525 9.83248 14.4839 8.94551 15.4968C8.70351 15.7571 8.44678 16.004 8.17654 16.2363C10.9663 15.5221 12.7083 12.8128 12.1562 10.0467C11.8969 8.8673 11.3642 7.76177 10.5989 6.81522C9.86398 5.87705 9.05344 4.98813 8.26347 4.08854C7.82451 3.63472 7.51971 3.07305 7.38154 2.46336C7.2163 1.73655 7.67498 1.01375 8.41466 0.835308C8.52764 0.807401 8.64607 0.790986 8.80818 0.763489C7.90024 0.162061 6.73648 0.0686531 5.74029 0.51725C4.23554 1.19605 3.5871 2.66692 3.84161 4.31426C3.93396 4.72804 4.05391 5.13547 4.20068 5.53396C3.26978 5.22174 2.2406 5.388 1.46205 5.97637C1.7279 6.07507 1.98286 6.19978 2.22304 6.3486C2.77411 6.7792 2.9173 7.54025 2.55902 8.13424C2.29561 8.57749 2.00968 9.00758 1.70228 9.42289C1.03674 10.3058 0.782454 11.4218 1.00177 12.4972C1.28795 14.1486 2.4695 15.5178 4.08687 16.0722C4.33721 16.1756 4.60549 16.2314 4.87725 16.2363C4.61351 15.9659 4.33129 15.7783 4.12467 15.519C3.23005 14.429 3.21271 12.8829 4.08267 11.7741C4.5081 11.2693 4.99736 10.8137 5.45177 10.3307C6.28839 9.55335 6.54438 8.35067 6.09433 7.31181C7.04766 7.9906 7.79143 8.80483 7.9191 9.96954Z" fill="#D5401E"/>
</svg>
