<svg width="15" height="15" viewBox="0 0 15 15" fill="none" xmlns="http://www.w3.org/2000/svg">
<path fill-rule="evenodd" clip-rule="evenodd" d="M7.59082 14.25C11.4568 14.25 14.5908 11.116 14.5908 7.25C14.5908 3.38401 11.4568 0.25 7.59082 0.25C3.72483 0.25 0.59082 3.38401 0.59082 7.25C0.59082 11.116 3.72483 14.25 7.59082 14.25ZM4.24911 7.8344C4.05385 7.63913 4.05385 7.32255 4.24911 7.12729C4.44437 6.93203 4.76095 6.93203 4.95621 7.12729L6.72398 8.89506L10.6131 5.00597C10.8083 4.81071 11.1249 4.81071 11.3202 5.00597C11.5154 5.20123 11.5154 5.51781 11.3202 5.71308L7.07753 9.95572C6.88227 10.151 6.56569 10.151 6.37043 9.95572L4.24911 7.8344Z" fill="white"/>
</svg>
