<svg width="37" height="37" viewBox="0 0 37 37" fill="none" xmlns="http://www.w3.org/2000/svg">
<circle cx="18.0107" cy="18.2432" r="18" fill="#FF4713"/>
<path d="M21.9482 13.4869L18.0107 17.4244L14.0732 13.4869C13.9689 13.3932 13.8517 13.3464 13.7217 13.3464C13.5917 13.3464 13.477 13.3959 13.3777 13.4949C13.2784 13.5939 13.2289 13.7086 13.2292 13.8389C13.2295 13.9692 13.2764 14.0864 13.3697 14.1904L17.3072 18.1279L13.3697 22.0654C13.2344 22.2007 13.19 22.3622 13.2367 22.5499C13.2834 22.7376 13.398 22.8547 13.5807 22.9014C13.7634 22.9481 13.9274 22.9037 14.0727 22.7684L18.0102 18.8309L21.9477 22.7684C22.052 22.8621 22.1692 22.9089 22.2992 22.9089C22.4292 22.9089 22.5439 22.8594 22.6432 22.7604C22.7425 22.6614 22.792 22.5467 22.7917 22.4164C22.7914 22.2861 22.7445 22.1689 22.6512 22.0649L18.7137 18.1274L22.6512 14.1899C22.7865 14.0546 22.8309 13.8931 22.7842 13.7054C22.7375 13.5177 22.6204 13.4006 22.4327 13.3539C22.245 13.3072 22.0835 13.3516 21.9482 13.4869Z" fill="white"/>
</svg>
