<svg width="16" height="17" viewBox="0 0 16 17" fill="none" xmlns="http://www.w3.org/2000/svg">
<path d="M12.1362 8.50432L13.5675 10.9731C13.6569 11.1273 13.8217 11.2223 14 11.2223C14.0081 11.2223 14.0161 11.2221 14.0241 11.2217C14.1039 11.2179 14.1817 11.1949 14.2508 11.1549C14.4051 11.0654 14.5 10.9006 14.5 10.7223C14.5 10.7143 14.4998 10.7062 14.4995 10.6982C14.4956 10.6184 14.4727 10.5406 14.4326 10.4715L13.0013 8.00276C12.9119 7.8485 12.7471 7.75354 12.5688 7.75354C12.5608 7.75354 12.5527 7.75373 12.5447 7.75412C12.4649 7.75797 12.3871 7.7809 12.318 7.82098C12.1637 7.91041 12.0688 8.07523 12.0688 8.25354C12.0688 8.26157 12.069 8.2696 12.0694 8.27763C12.0732 8.35745 12.0961 8.43518 12.1362 8.50432Z" fill="#1C1C1C"/>
<path d="M9.14511 9.71529L9.58886 12.234C9.61187 12.3646 9.68582 12.4807 9.79443 12.5568C9.8785 12.6157 9.97864 12.6473 10.0813 12.6473L10.0835 12.6473C10.1119 12.6472 10.1401 12.6446 10.168 12.6397C10.407 12.5976 10.5813 12.39 10.5813 12.1473L10.5813 12.1457C10.5812 12.1171 10.5786 12.0887 10.5737 12.0605L10.1299 9.54179C10.1069 9.41119 10.033 9.29508 9.92437 9.21901C9.84031 9.16012 9.74016 9.12854 9.63753 9.12854L9.63526 9.12855C9.60693 9.12867 9.57867 9.13121 9.55077 9.13612C9.42018 9.15913 9.30407 9.23308 9.22799 9.34169C9.16911 9.42576 9.13753 9.52591 9.13753 9.62854L9.13753 9.63081C9.13766 9.65913 9.1402 9.6874 9.14511 9.71529Z" fill="#1C1C1C"/>
<path d="M5.86382 9.53575L5.42008 12.0606C5.41506 12.0892 5.41254 12.1182 5.41254 12.1472L5.41256 12.1517C5.41473 12.3927 5.58858 12.5979 5.82599 12.6396C5.85457 12.6447 5.88352 12.6472 5.91254 12.6472L5.92277 12.6471C6.02197 12.6451 6.11832 12.6136 6.19956 12.5566C6.30814 12.4805 6.38204 12.3643 6.40499 12.2337L6.84871 9.70893C6.85373 9.68036 6.85629 9.65121 6.85629 9.62219L6.85618 9.61196C6.85415 9.51276 6.82265 9.41641 6.7657 9.33517C6.68958 9.22659 6.57344 9.15269 6.44283 9.12974C6.41426 9.12472 6.3853 9.12219 6.35629 9.12219L6.35178 9.12221C6.11073 9.12439 5.90556 9.29823 5.86382 9.53575Z" fill="#1C1C1C"/>
<path d="M2.99191 8.00371L1.56066 10.485C1.51684 10.5609 1.49377 10.6471 1.49377 10.7348C1.49377 10.7441 1.49403 10.7534 1.49455 10.7627C1.50397 10.9312 1.59775 11.0836 1.74394 11.1679C1.81991 11.2117 1.90607 11.2348 1.99377 11.2348L2.00297 11.2347C2.04365 11.234 2.08408 11.2282 2.12337 11.2177C2.25145 11.1833 2.36063 11.0995 2.42689 10.9846L3.85814 8.50337C3.90196 8.4274 3.92502 8.34124 3.92502 8.25354C3.92502 8.24424 3.92476 8.23493 3.92425 8.22564C3.91483 8.05714 3.82104 7.90476 3.67485 7.82043C3.59889 7.77661 3.51273 7.75354 3.42502 7.75354C3.41572 7.75354 3.40642 7.7538 3.39713 7.75432C3.22862 7.76373 3.07624 7.85752 2.99191 8.00371Z" fill="#1C1C1C"/>
<path d="M14.3882 7.16867C14.3886 7.16819 14.389 7.16772 14.389 7.16772C14.4608 7.07874 14.5 6.96786 14.5 6.85352L14.5 6.84878C14.4999 6.83269 14.4989 6.81662 14.4972 6.80062C14.4832 6.66876 14.4174 6.54787 14.3142 6.46455C14.2253 6.3927 14.1144 6.35352 14 6.35352L13.9988 6.35352C13.8481 6.3539 13.7057 6.42217 13.6111 6.53935C13.6107 6.5398 13.6103 6.54025 13.6103 6.54025C12.6806 7.69108 11.4902 8.38016 11.4902 8.38016C9.90585 9.29727 8.00003 9.29727 8.00003 9.29727C6.09421 9.29727 4.5099 8.38016 4.5099 8.38016C3.31925 7.69094 2.38934 6.53977 2.38934 6.53977C2.32697 6.46237 2.24294 6.40532 2.14799 6.37591C2.11701 6.36631 2.08517 6.35975 2.05292 6.35632C2.03535 6.35445 2.0177 6.35352 2.00003 6.35352C1.99347 6.35352 1.98692 6.35364 1.98036 6.3539C1.87285 6.35813 1.76957 6.39694 1.68586 6.46455C1.56834 6.55947 1.50003 6.70244 1.50003 6.85352C1.50003 6.86169 1.50023 6.86986 1.50063 6.87802C1.50497 6.96651 1.53275 7.05226 1.58112 7.12649C1.59039 7.14072 1.60039 7.15447 1.61106 7.16768C2.65759 8.46338 4.00891 9.24562 4.00891 9.24562C5.82565 10.2973 8.00003 10.2973 8.00003 10.2973C10.1744 10.2973 11.9911 9.24562 11.9911 9.24562C13.342 8.46368 14.3882 7.16867 14.3882 7.16867Z" fill="#1C1C1C"/>
</svg>
