<svg width="105" height="168" viewBox="0 0 105 168" fill="none" xmlns="http://www.w3.org/2000/svg">
<g clip-path="url(#clip0_2384_3604)">
<path d="M4.3048 12.5053L0.175293 16.6348L22.0885 38.548L26.218 34.4185L4.3048 12.5053Z" fill="#E73E14"/>
<path d="M57.9508 12.624L44.9908 25.554L32.0308 38.484L57.9208 38.514L83.8108 38.544L70.8808 25.584L57.9508 12.624ZM57.9408 20.884L66.7408 29.714L69.7108 32.684L57.9208 32.664H46.1308L49.1008 29.684L57.9308 20.884H57.9408Z" fill="#E73E14"/>
<path d="M104.011 0.274141L92.5809 0.254141L81.1509 0.244141L89.6509 12.8941V38.5441H95.5009V12.8441L104.011 0.274141Z" fill="#E73E14"/>
<path d="M104.011 141.634L91.0808 128.674L78.1508 115.714L78.1208 141.604L78.0908 167.494L91.0508 154.564L104.011 141.634ZM95.7408 141.624L86.9108 150.424L83.9408 153.394V141.604L83.9708 129.814L86.9408 132.784L95.7408 141.614V141.624Z" fill="#E73E14"/>
<path d="M19.4809 68.8045C20.4209 68.8045 21.3409 68.6545 22.2209 68.3445C23.1109 68.0445 23.9009 67.5345 24.5909 66.8245C25.2809 66.1145 25.8409 65.1945 26.2509 64.0645C26.6709 62.9245 26.8709 61.5445 26.8709 59.9045C26.8709 58.4045 26.7209 57.0545 26.4309 55.8545C26.1409 54.6445 25.6609 53.6145 25.0009 52.7545C24.3409 51.8945 23.4509 51.2345 22.3609 50.7845C21.2609 50.3245 19.9109 50.1045 18.3109 50.1045H13.6609V68.8045H19.4809ZM19.9309 44.6145C21.8409 44.6145 23.6209 44.9245 25.2709 45.5345C26.9209 46.1445 28.3509 47.0545 29.5509 48.2745C30.7609 49.4945 31.7009 51.0145 32.3809 52.8445C33.0609 54.6745 33.4009 56.8245 33.4009 59.2845C33.4009 61.4445 33.1209 63.4445 32.5709 65.2645C32.0209 67.0845 31.1809 68.6745 30.0609 70.0045C28.9409 71.3345 27.5409 72.3845 25.8609 73.1445C24.1809 73.9045 22.2109 74.2845 19.9409 74.2845H7.13086V44.6045H19.9309V44.6145Z" fill="black"/>
<path d="M44.4607 44.6143H37.9307V74.2943H44.4607V44.6143Z" fill="black"/>
<path d="M56.6809 44.6143L69.0609 64.5243H69.1509V44.6143H75.2609V74.2943H68.7309L56.3909 54.4243H56.3009V74.2943H50.1909V44.6143H56.6809Z" fill="black"/>
<path d="M103.191 44.6143V50.1043H87.5207V56.4643H101.901V61.5343H87.5207V68.8043H103.521V74.2943H80.9907V44.6143H103.191Z" fill="black"/>
<path d="M13.6209 80.2744L26.0009 100.184H26.0909V80.2744H32.2009V109.954H25.6709L13.3309 90.0844H13.2409V109.954H7.13086V80.2744H13.6209Z" fill="black"/>
<path d="M53.1008 98.4844L49.3608 87.5944H49.2808L45.4108 98.4844H53.1008ZM52.7308 80.2744L63.8308 109.954H57.0508L54.8008 103.344H43.7008L41.3708 109.954H34.8008L46.0208 80.2744H52.7108H52.7308Z" fill="black"/>
<path d="M60.251 85.7644V80.2744H84.571V85.7644H75.671V109.954H69.151V85.7644H60.251Z" fill="black"/>
<path d="M94.511 80.2744H87.981V109.954H94.511V80.2744Z" fill="black"/>
<path d="M29.271 130.664C29.271 125.524 25.611 121.244 20.461 121.244C15.311 121.244 11.731 125.444 11.731 130.664C11.731 135.884 15.391 140.084 20.541 140.084C25.691 140.084 29.271 135.884 29.271 130.664ZM5.04102 130.664C5.04102 122.144 11.561 115.164 20.541 115.164C29.521 115.164 35.961 122.054 35.961 130.664C35.961 139.274 29.431 146.164 20.461 146.164C11.491 146.164 5.04102 139.274 5.04102 130.664Z" fill="black"/>
<path d="M47.5208 115.975L59.9008 135.885H59.9908V115.975H66.1008V145.655H59.5708L47.2308 125.785H47.1408V145.655H41.0308V115.975H47.5208Z" fill="black"/>
</g>
<defs>
<clipPath id="clip0_2384_3604">
<rect width="103.84" height="167.25" fill="white" transform="translate(0.170898 0.244141)"/>
</clipPath>
</defs>
</svg>
