<svg width="292" height="78" viewBox="0 0 292 78" fill="none" xmlns="http://www.w3.org/2000/svg">
<g clip-path="url(#clip0_2948_44814)">
<path d="M11.1035 16.5496C12.7158 16.5496 14.2159 17.223 15.2673 18.2891C17.5385 20.6038 17.5385 24.4756 15.2673 26.8885C14.1318 28.0528 12.6176 28.628 11.1035 28.628C9.49127 28.628 7.99117 27.9546 6.93971 26.8885C4.66853 24.5738 4.66853 20.702 6.93971 18.2891C8.07529 17.223 9.49127 16.5496 11.1035 16.5496ZM11.1035 11.3311C8.27157 11.3311 5.43961 12.3972 3.26657 14.6137C-1.0795 19.0607 -1.0795 26.2151 3.26657 30.6481C5.43961 32.8645 8.27157 33.9307 11.1035 33.9307C13.9355 33.9307 16.7674 32.8645 18.9405 30.6481C23.2865 26.2011 23.2865 19.0607 18.9405 14.6137C16.7674 12.3972 13.9355 11.3311 11.1035 11.3311Z" fill="#F04C24"/>
<path d="M32.2591 5.63477H27.2541V45.8259H32.2591V5.63477Z" fill="#F04C24"/>
<path d="M42.3812 0.12207H37.4744V45.7282H42.3812V0.12207Z" fill="#F04C24"/>
<path d="M134.434 28.7539L130.887 32.3732L149.799 51.7043L153.346 48.0849L134.434 28.7539Z" fill="#F04C24"/>
<path d="M180.6 36.161L188.157 43.8906L190.708 46.4999H170.492L173.044 43.8906L180.6 36.161ZM180.6 28.8242L169.455 40.2293L158.309 51.6343H202.906L191.76 40.2293L180.614 28.8242H180.6Z" fill="#F04C24"/>
<path d="M47.7648 23.6052H57.6906C60.0459 23.6052 62.1348 24.0822 63.9294 24.9519C65.7239 25.9199 67.1398 27.1684 68.1773 28.8097C69.2147 30.451 69.6914 32.4851 69.6914 34.7016C69.6914 36.9181 69.2147 38.854 68.1773 40.5935C67.1398 42.2348 65.7239 43.5956 63.9294 44.4513C62.1348 45.4193 60.06 45.798 57.6906 45.798H47.7648V23.5771V23.6052ZM57.3962 41.6737C59.5693 41.6737 61.3638 41.0985 62.5975 39.836C63.9153 38.5734 64.5883 36.9321 64.5883 34.8138C64.5883 32.6956 63.9294 31.0402 62.5975 29.7917C61.2797 28.5292 59.5693 27.954 57.3962 27.954H52.7698V41.6737H57.3962Z" fill="#0C0C0C"/>
<path d="M73.4626 23.6055H78.4676V45.9245H73.4626V23.6055Z" fill="#0C0C0C"/>
<path d="M103.787 23.6055V45.9245H99.6232L88.758 32.4012V45.9245H83.7531V23.6055H87.9169L98.782 37.1288V23.6055H103.787Z" fill="#0C0C0C"/>
<path d="M125.798 41.7585V45.9109H108.89V23.5918H125.419V27.7442H113.993V32.5699H124.101V36.6241H113.993V41.7445H125.798V41.7585Z" fill="#0C0C0C"/>
<path d="M292 54.6226L284.443 54.5244H276.887L281.892 62.1558V77.4186H286.995V62.1558L292 54.6226Z" fill="#F04C24"/>
<path d="M276.494 43.6939L266.667 43.5957H256.741L264.115 54.8043V77.418H269.12V54.7061L276.494 43.6939Z" fill="#F04C24"/>
<path d="M150.935 55.0986V77.4177H146.771L135.906 63.8944V77.4177H130.901V55.0986H135.065L145.93 68.6219V55.0986H150.935Z" fill="#0C0C0C"/>
<path d="M170.492 72.592H160.384L158.491 77.4177H153.29L163.02 55.0986H168.025L177.754 77.4177H172.469L170.492 72.592ZM168.978 68.7201L165.487 60.219L161.996 68.7201H168.992H168.978Z" fill="#0C0C0C"/>
<path d="M183.432 59.2516H176.437V55.001H195.433V59.2516H188.437V77.4182H183.432V59.2516Z" fill="#0C0C0C"/>
<path d="M198.181 55.0986H203.186V77.4177H198.181V55.0986Z" fill="#0C0C0C"/>
<path d="M212.915 76.2541C211.121 75.1879 209.705 73.8412 208.668 72.0035C207.63 70.1658 207.153 68.1457 207.153 65.9152C207.153 63.6847 207.63 61.6646 208.668 59.8269C209.705 57.9892 211.121 56.6425 212.915 55.5763C214.71 54.5102 216.785 54.0332 219.056 54.0332C221.327 54.0332 223.402 54.5102 225.197 55.5763C226.991 56.6425 228.407 57.9892 229.445 59.8269C230.482 61.6646 230.959 63.6847 230.959 65.9152C230.959 68.1457 230.398 70.1658 229.445 72.0035C228.407 73.8412 226.991 75.1879 225.197 76.2541C223.402 77.3202 221.327 77.7972 219.056 77.7972C216.785 77.7972 214.71 77.222 212.915 76.2541ZM222.463 72.2981C223.5 71.7229 224.355 70.8532 224.916 69.6888C225.477 68.5245 225.771 67.276 225.771 65.9152C225.771 64.4703 225.491 63.2077 224.916 62.1416C224.355 60.9772 223.5 60.1075 222.463 59.5323C221.425 58.9571 220.29 58.5644 218.972 58.5644C217.654 58.5644 216.519 58.8589 215.481 59.5323C214.444 60.1075 213.588 60.9772 213.028 62.1416C212.467 63.3059 212.172 64.5545 212.172 65.9152C212.172 67.3601 212.453 68.6227 213.028 69.6888C213.588 70.8532 214.444 71.7229 215.481 72.2981C216.519 72.8733 217.654 73.266 218.972 73.266C220.29 73.266 221.425 72.9715 222.463 72.2981Z" fill="#0C0C0C"/>
<path d="M254.764 55.0986V77.4177H250.6L239.735 63.8944V77.4177H234.73V55.0986H238.894L249.759 68.6219V55.0986H254.764Z" fill="#0C0C0C"/>
</g>
<defs>
<clipPath id="clip0_2948_44814">
<rect width="292" height="77.6749" fill="white" transform="translate(0 0.12207)"/>
</clipPath>
</defs>
</svg>
