<svg width="15" height="14" viewBox="0 0 15 14" fill="none" xmlns="http://www.w3.org/2000/svg">
<path d="M14.8365 5.5875C14.7739 5.39061 14.6533 5.21723 14.4905 5.09009C14.3276 4.96294 14.1302 4.88797 13.924 4.875L10.2115 4.61875L8.8365 1.15C8.76142 0.959002 8.63073 0.79494 8.46136 0.679052C8.29198 0.563165 8.09172 0.500789 7.8865 0.5C7.68127 0.500789 7.48101 0.563165 7.31164 0.679052C7.14226 0.79494 7.01158 0.959002 6.9365 1.15L5.5365 4.6375L1.849 4.875C1.64306 4.88881 1.44601 4.9641 1.28333 5.09112C1.12065 5.21814 0.99983 5.39106 0.936497 5.5875C0.87146 5.78695 0.86766 6.00131 0.925587 6.20294C0.983515 6.40458 1.10051 6.58423 1.2615 6.71875L4.099 9.11875L3.25525 12.4375C3.19687 12.662 3.20738 12.8989 3.2854 13.1174C3.36342 13.3358 3.50535 13.5258 3.69275 13.6625C3.87464 13.793 4.09135 13.8664 4.31515 13.873C4.53894 13.8797 4.75964 13.8195 4.949 13.7L7.88025 11.8438H7.89275L11.049 13.8375C11.2109 13.9427 11.3997 13.9991 11.5927 14C11.7504 13.9988 11.9057 13.9614 12.0466 13.8908C12.1876 13.8201 12.3105 13.7181 12.4058 13.5926C12.5012 13.467 12.5665 13.3213 12.5967 13.1666C12.627 13.0118 12.6213 12.8522 12.5802 12.7L11.6865 9.06875L14.5115 6.71875C14.6725 6.58423 14.7895 6.40458 14.8474 6.20294C14.9053 6.00131 14.9015 5.78695 14.8365 5.5875Z" fill="#F1AC1D"/>
</svg>
