<svg width="17" height="17" viewBox="0 0 17 17" fill="none" xmlns="http://www.w3.org/2000/svg">
<path d="M12.646 4.44531V6.44531C12.646 6.72145 12.8699 6.94531 13.146 6.94531C13.4221 6.94531 13.646 6.72145 13.646 6.44531V3.94531C13.646 3.66917 13.4221 3.44531 13.146 3.44531H10.646C10.3699 3.44531 10.146 3.66917 10.146 3.94531C10.146 4.22145 10.3699 4.44531 10.646 4.44531H12.646Z" fill="#68696D"/>
<path d="M13.4994 4.29905C13.5931 4.20529 13.646 4.07792 13.646 3.94531C13.646 3.8127 13.5933 3.68553 13.4995 3.59176L13.4952 3.58749C13.4019 3.49651 13.2764 3.44531 13.146 3.44531C13.0134 3.44531 12.8862 3.49799 12.7924 3.59176L9.29263 7.09157C9.19886 7.18534 9.146 7.3127 9.146 7.44531C9.146 7.45332 9.14619 7.46133 9.14657 7.46933C9.15254 7.59349 9.20455 7.71097 9.29244 7.79887C9.38621 7.89263 9.51339 7.94531 9.646 7.94531C9.7786 7.94531 9.90578 7.89263 9.99955 7.79887L13.4994 4.29905Z" fill="#68696D"/>
<path d="M3.646 13.4453V11.4453C3.646 11.1692 3.42214 10.9453 3.146 10.9453C2.86985 10.9453 2.646 11.1692 2.646 11.4453V13.9453C2.646 14.2215 2.86985 14.4453 3.146 14.4453H5.646C5.92214 14.4453 6.146 14.2215 6.146 13.9453C6.146 13.6692 5.92214 13.4453 5.646 13.4453H3.646Z" fill="#68696D"/>
<path d="M6.99936 10.7991C7.09313 10.7053 7.146 10.5779 7.146 10.4453C7.146 10.3127 7.09332 10.1855 6.99955 10.0918L6.99523 10.0875C6.90187 9.99651 6.77636 9.94531 6.646 9.94531C6.51339 9.94531 6.38621 9.99799 6.29244 10.0918L2.79263 13.5916C2.69886 13.6853 2.646 13.8127 2.646 13.9453C2.646 13.9533 2.64619 13.9613 2.64657 13.9693C2.65254 14.0935 2.70455 14.211 2.79244 14.2989C2.88621 14.3926 3.01339 14.4453 3.146 14.4453C3.2786 14.4453 3.40578 14.3926 3.49955 14.2989L6.99936 10.7991Z" fill="#68696D"/>
<path d="M12.646 13.4453H10.646C10.3699 13.4453 10.146 13.6692 10.146 13.9453C10.146 14.2215 10.3699 14.4453 10.646 14.4453H13.146C13.4221 14.4453 13.646 14.2215 13.646 13.9453V11.4453C13.646 11.1692 13.4221 10.9453 13.146 10.9453C12.8699 10.9453 12.646 11.1692 12.646 11.4453V13.4453Z" fill="#68696D"/>
<path d="M12.7922 14.2986C12.886 14.3924 13.0134 14.4453 13.146 14.4453C13.2786 14.4453 13.4058 14.3926 13.4995 14.2989C13.5933 14.2051 13.646 14.0779 13.646 13.9453C13.646 13.8127 13.5933 13.6855 13.4995 13.5918L9.99961 10.0918C9.90578 9.99799 9.7786 9.94531 9.646 9.94531C9.51339 9.94531 9.38621 9.99799 9.29244 10.0918C9.19867 10.1855 9.146 10.3127 9.146 10.4453C9.146 10.5779 9.19867 10.7051 9.29244 10.7989L12.7922 14.2986Z" fill="#68696D"/>
<path d="M3.646 4.44531H5.646C5.92214 4.44531 6.146 4.22145 6.146 3.94531C6.146 3.66917 5.92214 3.44531 5.646 3.44531H3.146C2.86985 3.44531 2.646 3.66917 2.646 3.94531V6.44531C2.646 6.72145 2.86985 6.94531 3.146 6.94531C3.42214 6.94531 3.646 6.72145 3.646 6.44531V4.44531Z" fill="#68696D"/>
<path d="M3.49955 3.59176C3.40578 3.49799 3.2786 3.44531 3.146 3.44531C3.01339 3.44531 2.88621 3.49799 2.79244 3.59176C2.69867 3.68553 2.646 3.8127 2.646 3.94531C2.646 4.07792 2.69867 4.2051 2.79244 4.29887L6.29218 7.79861C6.38595 7.89238 6.51339 7.94531 6.646 7.94531C6.7786 7.94531 6.90578 7.89263 6.99955 7.79887C7.09332 7.7051 7.146 7.57792 7.146 7.44531C7.146 7.3127 7.09332 7.18553 6.99955 7.09176L3.49955 3.59176Z" fill="#68696D"/>
</svg>
