<svg width="17" height="17" viewBox="0 0 17 17" fill="none" xmlns="http://www.w3.org/2000/svg">
<path d="M1.63751 7.21004C1.82504 7.02257 2.07935 6.91725 2.34451 6.91725C2.60968 6.91725 2.86399 7.02257 3.05151 7.21004L6.58751 10.746L13.6575 3.67504C13.7504 3.58213 13.8606 3.50842 13.9819 3.45811C14.1033 3.4078 14.2333 3.38188 14.3647 3.38184C14.496 3.38179 14.6261 3.40761 14.7474 3.45784C14.8688 3.50806 14.9791 3.58169 15.072 3.67454C15.1649 3.76738 15.2386 3.87762 15.2889 3.99895C15.3393 4.12028 15.3652 4.25034 15.3652 4.38169C15.3653 4.51303 15.3394 4.64311 15.2892 4.76447C15.239 4.88584 15.1654 4.99613 15.0725 5.08904L6.58751 13.574L1.63751 8.62404C1.45004 8.43651 1.34473 8.1822 1.34473 7.91704C1.34473 7.65187 1.45004 7.39757 1.63751 7.21004Z" fill="white"/>
</svg>
