<svg width="26" height="27" viewBox="0 0 26 27" fill="none" xmlns="http://www.w3.org/2000/svg">
<path d="M13 0.296875C10.4288 0.296875 7.91543 1.05931 5.77759 2.48777C3.63975 3.91623 1.97351 5.94655 0.989572 8.32199C0.0056327 10.6974 -0.251811 13.3113 0.249797 15.833C0.751405 18.3548 1.98953 20.6712 3.80762 22.4893C5.6257 24.3073 7.94208 25.5455 10.4638 26.0471C12.9856 26.5487 15.5995 26.2912 17.9749 25.3073C20.3503 24.3234 22.3807 22.6571 23.8091 20.5193C25.2376 18.3814 26 15.868 26 13.2969C25.9934 9.85109 24.6216 6.54833 22.1851 4.11179C19.7486 1.67524 16.4458 0.303482 13 0.296875ZM17.5 9.29688C17.7967 9.29688 18.0867 9.38485 18.3334 9.54967C18.58 9.71449 18.7723 9.94876 18.8858 10.2228C18.9994 10.4969 19.0291 10.7985 18.9712 11.0895C18.9133 11.3805 18.7704 11.6478 18.5607 11.8575C18.3509 12.0673 18.0836 12.2102 17.7926 12.2681C17.5017 12.3259 17.2001 12.2962 16.926 12.1827C16.6519 12.0692 16.4176 11.8769 16.2528 11.6302C16.088 11.3836 16 11.0935 16 10.7969C16 10.3991 16.158 10.0175 16.4393 9.73621C16.7207 9.45491 17.1022 9.29688 17.5 9.29688ZM8.50001 9.29688C8.79668 9.29688 9.08669 9.38485 9.33336 9.54967C9.58003 9.71449 9.77229 9.94876 9.88583 10.2228C9.99936 10.4969 10.0291 10.7985 9.97118 11.0895C9.91331 11.3805 9.77044 11.6478 9.56067 11.8575C9.35089 12.0673 9.08361 12.2102 8.79264 12.2681C8.50167 12.3259 8.20007 12.2962 7.92598 12.1827C7.65189 12.0692 7.41762 11.8769 7.2528 11.6302C7.08798 11.3836 7.00001 11.0935 7.00001 10.7969C7.00001 10.3991 7.15804 10.0175 7.43935 9.73621C7.72065 9.45491 8.10218 9.29688 8.50001 9.29688ZM19.0625 16.7969C18.4482 17.8612 17.5645 18.745 16.5003 19.3594C15.4361 19.9739 14.2289 20.2974 13 20.2974C11.7711 20.2974 10.5639 19.9739 9.49973 19.3594C8.43553 18.745 7.55184 17.8612 6.93751 16.7969C6.85924 16.6833 6.80531 16.5548 6.77909 16.4195C6.75288 16.2841 6.75494 16.1447 6.78517 16.0102C6.81539 15.8756 6.87312 15.7488 6.95471 15.6376C7.03631 15.5265 7.14002 15.4334 7.25933 15.3642C7.37863 15.295 7.51094 15.2513 7.64796 15.2357C7.78498 15.2202 7.92374 15.2331 8.05552 15.2737C8.18729 15.3144 8.30924 15.3818 8.4137 15.4718C8.51816 15.5619 8.60287 15.6725 8.66251 15.7969C9.10291 16.5573 9.73546 17.1885 10.4967 17.6273C11.258 18.0662 12.1213 18.2972 13 18.2972C13.8787 18.2972 14.742 18.0662 15.5033 17.6273C16.2646 17.1885 16.8971 16.5573 17.3375 15.7969C17.4804 15.5896 17.6961 15.4439 17.9417 15.3887C18.1873 15.3336 18.4446 15.373 18.6624 15.4993C18.8801 15.6255 19.0423 15.8292 19.1165 16.0697C19.1906 16.3103 19.1714 16.5699 19.0625 16.7969Z" fill="white"/>
</svg>
